<mxfile host="app.diagrams.net" modified="2022-02-18T09:25:13.755Z" agent="5.0 (Macintosh; Intel Mac OS X 10_15_7) AppleWebKit/537.36 (KHTML, like Gecko) Chrome/98.0.4758.80 Safari/537.36" etag="b2DRs6QWMi2YeNlZrP3p" version="16.5.5" type="github">
  <diagram id="L1KwRnPOjzhmj4UBkuKn" name="第 1 页">
    <mxGraphModel dx="1106" dy="644" grid="0" gridSize="10" guides="1" tooltips="1" connect="1" arrows="1" fold="1" page="1" pageScale="1" pageWidth="827" pageHeight="1169" math="0" shadow="0">
      <root>
        <mxCell id="0" />
        <mxCell id="1" parent="0" />
        <mxCell id="ffW3NOgqOSrnDVPmoZo_-2" value="" style="html=1;shadow=0;dashed=0;align=center;verticalAlign=middle;shape=mxgraph.arrows2.arrow;dy=0;dx=10;notch=0;" vertex="1" parent="1">
          <mxGeometry x="27" y="88" width="530" height="50" as="geometry" />
        </mxCell>
        <mxCell id="ffW3NOgqOSrnDVPmoZo_-3" value="2轮" style="ellipse;whiteSpace=wrap;html=1;aspect=fixed;fillColor=#FFFF99;strokeColor=#d6b656;" vertex="1" parent="1">
          <mxGeometry x="387" y="93" width="40" height="40" as="geometry" />
        </mxCell>
        <mxCell id="ffW3NOgqOSrnDVPmoZo_-4" value="7轮" style="ellipse;whiteSpace=wrap;html=1;aspect=fixed;fillColor=#FFB366;strokeColor=#d79b00;" vertex="1" parent="1">
          <mxGeometry x="337" y="93" width="40" height="40" as="geometry" />
        </mxCell>
        <mxCell id="ffW3NOgqOSrnDVPmoZo_-5" value="8轮" style="ellipse;whiteSpace=wrap;html=1;aspect=fixed;fillColor=#FFB366;strokeColor=#d79b00;" vertex="1" parent="1">
          <mxGeometry x="287" y="93" width="40" height="40" as="geometry" />
        </mxCell>
        <mxCell id="ffW3NOgqOSrnDVPmoZo_-6" value="1轮" style="ellipse;whiteSpace=wrap;html=1;aspect=fixed;fillColor=#66FF66;strokeColor=#82b366;" vertex="1" parent="1">
          <mxGeometry x="237" y="93" width="40" height="40" as="geometry" />
        </mxCell>
        <mxCell id="ffW3NOgqOSrnDVPmoZo_-7" value="3轮" style="ellipse;whiteSpace=wrap;html=1;aspect=fixed;fillColor=#FFFF99;strokeColor=#d6b656;" vertex="1" parent="1">
          <mxGeometry x="187" y="93" width="40" height="40" as="geometry" />
        </mxCell>
        <mxCell id="ffW3NOgqOSrnDVPmoZo_-8" value="1轮" style="ellipse;whiteSpace=wrap;html=1;aspect=fixed;fillColor=#66FF66;strokeColor=#82b366;" vertex="1" parent="1">
          <mxGeometry x="137" y="93" width="40" height="40" as="geometry" />
        </mxCell>
        <mxCell id="ffW3NOgqOSrnDVPmoZo_-9" value="2轮" style="ellipse;whiteSpace=wrap;html=1;aspect=fixed;fillColor=#FFFF99;strokeColor=#d6b656;" vertex="1" parent="1">
          <mxGeometry x="87" y="93" width="40" height="40" as="geometry" />
        </mxCell>
        <mxCell id="ffW3NOgqOSrnDVPmoZo_-10" value="1轮" style="ellipse;whiteSpace=wrap;html=1;aspect=fixed;fillColor=#66FF66;strokeColor=#82b366;" vertex="1" parent="1">
          <mxGeometry x="37" y="93" width="40" height="40" as="geometry" />
        </mxCell>
        <mxCell id="ffW3NOgqOSrnDVPmoZo_-11" value="5轮" style="ellipse;whiteSpace=wrap;html=1;aspect=fixed;fillColor=#FFB366;strokeColor=#d79b00;" vertex="1" parent="1">
          <mxGeometry x="437" y="93" width="40" height="40" as="geometry" />
        </mxCell>
        <mxCell id="ffW3NOgqOSrnDVPmoZo_-12" value="1轮" style="ellipse;whiteSpace=wrap;html=1;aspect=fixed;fillColor=#66FF66;strokeColor=#82b366;" vertex="1" parent="1">
          <mxGeometry x="487" y="93" width="40" height="40" as="geometry" />
        </mxCell>
        <mxCell id="ffW3NOgqOSrnDVPmoZo_-26" style="edgeStyle=orthogonalEdgeStyle;rounded=0;orthogonalLoop=1;jettySize=auto;html=1;entryX=0.5;entryY=0;entryDx=0;entryDy=0;fontSize=19;" edge="1" parent="1" source="ffW3NOgqOSrnDVPmoZo_-17" target="ffW3NOgqOSrnDVPmoZo_-25">
          <mxGeometry relative="1" as="geometry" />
        </mxCell>
        <mxCell id="ffW3NOgqOSrnDVPmoZo_-27" style="rounded=0;orthogonalLoop=1;jettySize=auto;html=1;exitX=0.25;exitY=1;exitDx=0;exitDy=0;entryX=1;entryY=0.25;entryDx=0;entryDy=0;fontSize=19;" edge="1" parent="1" source="ffW3NOgqOSrnDVPmoZo_-17" target="ffW3NOgqOSrnDVPmoZo_-24">
          <mxGeometry relative="1" as="geometry" />
        </mxCell>
        <mxCell id="ffW3NOgqOSrnDVPmoZo_-17" value="寻车、匹配、路线规划、&lt;br&gt;计算、过滤、指派" style="rounded=0;whiteSpace=wrap;html=1;strokeColor=#1A1A1A;strokeWidth=1;fillColor=none;" vertex="1" parent="1">
          <mxGeometry x="670" y="83" width="150" height="60" as="geometry" />
        </mxCell>
        <mxCell id="ffW3NOgqOSrnDVPmoZo_-18" value="" style="shape=flexArrow;endArrow=classic;html=1;rounded=0;" edge="1" parent="1">
          <mxGeometry width="50" height="50" relative="1" as="geometry">
            <mxPoint x="563" y="112.5" as="sourcePoint" />
            <mxPoint x="623" y="112.5" as="targetPoint" />
          </mxGeometry>
        </mxCell>
        <mxCell id="ffW3NOgqOSrnDVPmoZo_-20" value="&lt;font style=&quot;font-size: 13px&quot;&gt;订单排队等候派单&lt;/font&gt;" style="text;html=1;align=center;verticalAlign=middle;resizable=0;points=[];autosize=1;strokeColor=none;fillColor=none;" vertex="1" parent="1">
          <mxGeometry x="232" y="58" width="120" height="20" as="geometry" />
        </mxCell>
        <mxCell id="ffW3NOgqOSrnDVPmoZo_-22" value="2轮" style="ellipse;whiteSpace=wrap;html=1;aspect=fixed;fillColor=#FFFF99;strokeColor=#d6b656;" vertex="1" parent="1">
          <mxGeometry x="627" y="93" width="40" height="40" as="geometry" />
        </mxCell>
        <mxCell id="ffW3NOgqOSrnDVPmoZo_-23" value="&lt;font style=&quot;font-size: 19px&quot;&gt;旧方案&lt;/font&gt;" style="text;html=1;align=center;verticalAlign=middle;resizable=0;points=[];autosize=1;strokeColor=none;fillColor=none;fontSize=13;strokeWidth=1;" vertex="1" parent="1">
          <mxGeometry x="390" y="36" width="67" height="22" as="geometry" />
        </mxCell>
        <mxCell id="ffW3NOgqOSrnDVPmoZo_-28" style="edgeStyle=orthogonalEdgeStyle;rounded=0;orthogonalLoop=1;jettySize=auto;html=1;entryX=0;entryY=0.5;entryDx=0;entryDy=0;entryPerimeter=0;fontSize=12;exitX=0;exitY=0.5;exitDx=0;exitDy=0;" edge="1" parent="1" source="ffW3NOgqOSrnDVPmoZo_-24" target="ffW3NOgqOSrnDVPmoZo_-2">
          <mxGeometry relative="1" as="geometry" />
        </mxCell>
        <mxCell id="ffW3NOgqOSrnDVPmoZo_-29" value="&amp;nbsp;重派&amp;nbsp;" style="edgeLabel;html=1;align=center;verticalAlign=middle;resizable=0;points=[];fontSize=12;" vertex="1" connectable="0" parent="ffW3NOgqOSrnDVPmoZo_-28">
          <mxGeometry x="-0.2364" y="1" relative="1" as="geometry">
            <mxPoint as="offset" />
          </mxGeometry>
        </mxCell>
        <mxCell id="ffW3NOgqOSrnDVPmoZo_-24" value="&lt;font style=&quot;font-size: 11px&quot;&gt;撮合失败&lt;/font&gt;" style="rounded=0;whiteSpace=wrap;html=1;fontSize=19;strokeColor=#1A1A1A;strokeWidth=1;fillColor=none;" vertex="1" parent="1">
          <mxGeometry x="527" y="176" width="120" height="60" as="geometry" />
        </mxCell>
        <mxCell id="ffW3NOgqOSrnDVPmoZo_-25" value="&lt;font style=&quot;font-size: 12px&quot;&gt;撮合成功&lt;/font&gt;" style="rounded=0;whiteSpace=wrap;html=1;fontSize=19;strokeColor=#1A1A1A;strokeWidth=1;fillColor=none;" vertex="1" parent="1">
          <mxGeometry x="685" y="178" width="120" height="60" as="geometry" />
        </mxCell>
        <mxCell id="ffW3NOgqOSrnDVPmoZo_-30" value="" style="html=1;shadow=0;dashed=0;align=center;verticalAlign=middle;shape=mxgraph.arrows2.arrow;dy=0;dx=10;notch=0;" vertex="1" parent="1">
          <mxGeometry x="117" y="359" width="377" height="50" as="geometry" />
        </mxCell>
        <mxCell id="ffW3NOgqOSrnDVPmoZo_-34" value="1轮" style="ellipse;whiteSpace=wrap;html=1;aspect=fixed;fillColor=#66FF66;strokeColor=#82b366;" vertex="1" parent="1">
          <mxGeometry x="374" y="364" width="40" height="40" as="geometry" />
        </mxCell>
        <mxCell id="ffW3NOgqOSrnDVPmoZo_-36" value="1轮" style="ellipse;whiteSpace=wrap;html=1;aspect=fixed;fillColor=#66FF66;strokeColor=#82b366;" vertex="1" parent="1">
          <mxGeometry x="324" y="364" width="40" height="40" as="geometry" />
        </mxCell>
        <mxCell id="ffW3NOgqOSrnDVPmoZo_-38" value="1轮" style="ellipse;whiteSpace=wrap;html=1;aspect=fixed;fillColor=#66FF66;strokeColor=#82b366;" vertex="1" parent="1">
          <mxGeometry x="274" y="364" width="40" height="40" as="geometry" />
        </mxCell>
        <mxCell id="ffW3NOgqOSrnDVPmoZo_-40" value="1轮" style="ellipse;whiteSpace=wrap;html=1;aspect=fixed;fillColor=#66FF66;strokeColor=#82b366;" vertex="1" parent="1">
          <mxGeometry x="424" y="364" width="40" height="40" as="geometry" />
        </mxCell>
        <mxCell id="ffW3NOgqOSrnDVPmoZo_-41" style="rounded=0;orthogonalLoop=1;jettySize=auto;html=1;entryX=0.5;entryY=0;entryDx=0;entryDy=0;fontSize=19;exitX=0.5;exitY=1;exitDx=0;exitDy=0;" edge="1" parent="1" source="ffW3NOgqOSrnDVPmoZo_-43" target="ffW3NOgqOSrnDVPmoZo_-51">
          <mxGeometry relative="1" as="geometry" />
        </mxCell>
        <mxCell id="ffW3NOgqOSrnDVPmoZo_-119" style="edgeStyle=none;rounded=0;orthogonalLoop=1;jettySize=auto;html=1;exitX=0.25;exitY=1;exitDx=0;exitDy=0;entryX=0.75;entryY=0;entryDx=0;entryDy=0;fontSize=12;" edge="1" parent="1" source="ffW3NOgqOSrnDVPmoZo_-43" target="ffW3NOgqOSrnDVPmoZo_-50">
          <mxGeometry relative="1" as="geometry" />
        </mxCell>
        <mxCell id="ffW3NOgqOSrnDVPmoZo_-43" value="寻车、匹配、路线规划、&lt;br&gt;计算、过滤、指派" style="rounded=0;whiteSpace=wrap;html=1;strokeColor=#1A1A1A;strokeWidth=1;fillColor=none;" vertex="1" parent="1">
          <mxGeometry x="652" y="443" width="150" height="60" as="geometry" />
        </mxCell>
        <mxCell id="ffW3NOgqOSrnDVPmoZo_-44" value="" style="shape=flexArrow;endArrow=classic;html=1;rounded=0;" edge="1" parent="1">
          <mxGeometry width="50" height="50" relative="1" as="geometry">
            <mxPoint x="500" y="383.5" as="sourcePoint" />
            <mxPoint x="560" y="383.5" as="targetPoint" />
          </mxGeometry>
        </mxCell>
        <mxCell id="ffW3NOgqOSrnDVPmoZo_-45" value="&lt;font style=&quot;font-size: 13px&quot;&gt;第1轮 派单队列&lt;/font&gt;" style="text;html=1;align=center;verticalAlign=middle;resizable=0;points=[];autosize=1;strokeColor=none;fillColor=none;" vertex="1" parent="1">
          <mxGeometry x="253" y="340" width="99" height="18" as="geometry" />
        </mxCell>
        <mxCell id="ffW3NOgqOSrnDVPmoZo_-47" value="&lt;font style=&quot;font-size: 19px&quot;&gt;新方案&lt;/font&gt;" style="text;html=1;align=center;verticalAlign=middle;resizable=0;points=[];autosize=1;strokeColor=none;fillColor=none;fontSize=13;strokeWidth=1;" vertex="1" parent="1">
          <mxGeometry x="327" y="307" width="67" height="22" as="geometry" />
        </mxCell>
        <mxCell id="ffW3NOgqOSrnDVPmoZo_-120" style="edgeStyle=orthogonalEdgeStyle;rounded=0;orthogonalLoop=1;jettySize=auto;html=1;entryX=0;entryY=0.5;entryDx=0;entryDy=0;entryPerimeter=0;fontSize=12;" edge="1" parent="1" source="ffW3NOgqOSrnDVPmoZo_-50" target="ffW3NOgqOSrnDVPmoZo_-80">
          <mxGeometry relative="1" as="geometry">
            <Array as="points">
              <mxPoint x="12" y="636" />
              <mxPoint x="12" y="473" />
            </Array>
          </mxGeometry>
        </mxCell>
        <mxCell id="ffW3NOgqOSrnDVPmoZo_-121" style="edgeStyle=orthogonalEdgeStyle;rounded=0;orthogonalLoop=1;jettySize=auto;html=1;entryX=0;entryY=0.5;entryDx=0;entryDy=0;entryPerimeter=0;fontSize=12;" edge="1" parent="1" source="ffW3NOgqOSrnDVPmoZo_-50" target="ffW3NOgqOSrnDVPmoZo_-94">
          <mxGeometry relative="1" as="geometry">
            <Array as="points">
              <mxPoint x="19" y="636" />
              <mxPoint x="19" y="563" />
            </Array>
          </mxGeometry>
        </mxCell>
        <mxCell id="ffW3NOgqOSrnDVPmoZo_-50" value="&lt;font style=&quot;font-size: 11px&quot;&gt;撮合失败&lt;/font&gt;" style="rounded=0;whiteSpace=wrap;html=1;fontSize=19;strokeColor=#1A1A1A;strokeWidth=1;fillColor=none;" vertex="1" parent="1">
          <mxGeometry x="541" y="606" width="120" height="60" as="geometry" />
        </mxCell>
        <mxCell id="ffW3NOgqOSrnDVPmoZo_-51" value="&lt;font style=&quot;font-size: 12px&quot;&gt;撮合成功&lt;/font&gt;" style="rounded=0;whiteSpace=wrap;html=1;fontSize=19;strokeColor=#1A1A1A;strokeWidth=1;fillColor=none;" vertex="1" parent="1">
          <mxGeometry x="682" y="606" width="120" height="60" as="geometry" />
        </mxCell>
        <mxCell id="ffW3NOgqOSrnDVPmoZo_-80" value="" style="html=1;shadow=0;dashed=0;align=center;verticalAlign=middle;shape=mxgraph.arrows2.arrow;dy=0;dx=10;notch=0;" vertex="1" parent="1">
          <mxGeometry x="119" y="448" width="375" height="50" as="geometry" />
        </mxCell>
        <mxCell id="ffW3NOgqOSrnDVPmoZo_-81" value="2轮" style="ellipse;whiteSpace=wrap;html=1;aspect=fixed;fillColor=#FFFF99;strokeColor=#d6b656;" vertex="1" parent="1">
          <mxGeometry x="424" y="453" width="40" height="40" as="geometry" />
        </mxCell>
        <mxCell id="ffW3NOgqOSrnDVPmoZo_-85" value="3轮" style="ellipse;whiteSpace=wrap;html=1;aspect=fixed;fillColor=#FFFF99;strokeColor=#d6b656;" vertex="1" parent="1">
          <mxGeometry x="374" y="453" width="40" height="40" as="geometry" />
        </mxCell>
        <mxCell id="ffW3NOgqOSrnDVPmoZo_-87" value="2轮" style="ellipse;whiteSpace=wrap;html=1;aspect=fixed;fillColor=#FFFF99;strokeColor=#d6b656;" vertex="1" parent="1">
          <mxGeometry x="324" y="453" width="40" height="40" as="geometry" />
        </mxCell>
        <mxCell id="ffW3NOgqOSrnDVPmoZo_-91" value="" style="shape=flexArrow;endArrow=classic;html=1;rounded=0;" edge="1" parent="1">
          <mxGeometry width="50" height="50" relative="1" as="geometry">
            <mxPoint x="500" y="472.5" as="sourcePoint" />
            <mxPoint x="560" y="472.5" as="targetPoint" />
          </mxGeometry>
        </mxCell>
        <mxCell id="ffW3NOgqOSrnDVPmoZo_-92" value="&lt;span style=&quot;font-size: 13px&quot;&gt;第2~3轮 派单队列&lt;/span&gt;" style="text;html=1;align=center;verticalAlign=middle;resizable=0;points=[];autosize=1;strokeColor=none;fillColor=none;" vertex="1" parent="1">
          <mxGeometry x="246" y="429" width="114" height="18" as="geometry" />
        </mxCell>
        <mxCell id="ffW3NOgqOSrnDVPmoZo_-117" style="edgeStyle=none;rounded=0;orthogonalLoop=1;jettySize=auto;html=1;entryX=0;entryY=0.5;entryDx=0;entryDy=0;fontSize=12;" edge="1" parent="1" source="ffW3NOgqOSrnDVPmoZo_-93" target="ffW3NOgqOSrnDVPmoZo_-43">
          <mxGeometry relative="1" as="geometry" />
        </mxCell>
        <mxCell id="ffW3NOgqOSrnDVPmoZo_-93" value="2轮" style="ellipse;whiteSpace=wrap;html=1;aspect=fixed;fillColor=#FFFF99;strokeColor=#d6b656;" vertex="1" parent="1">
          <mxGeometry x="564" y="453" width="40" height="40" as="geometry" />
        </mxCell>
        <mxCell id="ffW3NOgqOSrnDVPmoZo_-94" value="" style="html=1;shadow=0;dashed=0;align=center;verticalAlign=middle;shape=mxgraph.arrows2.arrow;dy=0;dx=10;notch=0;" vertex="1" parent="1">
          <mxGeometry x="121" y="538" width="373" height="50" as="geometry" />
        </mxCell>
        <mxCell id="ffW3NOgqOSrnDVPmoZo_-96" value="7轮" style="ellipse;whiteSpace=wrap;html=1;aspect=fixed;fillColor=#FFB366;strokeColor=#d79b00;" vertex="1" parent="1">
          <mxGeometry x="374" y="543" width="40" height="40" as="geometry" />
        </mxCell>
        <mxCell id="ffW3NOgqOSrnDVPmoZo_-97" value="8轮" style="ellipse;whiteSpace=wrap;html=1;aspect=fixed;fillColor=#FFB366;strokeColor=#d79b00;" vertex="1" parent="1">
          <mxGeometry x="321" y="543" width="40" height="40" as="geometry" />
        </mxCell>
        <mxCell id="ffW3NOgqOSrnDVPmoZo_-103" value="5轮" style="ellipse;whiteSpace=wrap;html=1;aspect=fixed;fillColor=#FFB366;strokeColor=#d79b00;" vertex="1" parent="1">
          <mxGeometry x="424" y="543" width="40" height="40" as="geometry" />
        </mxCell>
        <mxCell id="ffW3NOgqOSrnDVPmoZo_-105" value="" style="shape=flexArrow;endArrow=classic;html=1;rounded=0;" edge="1" parent="1">
          <mxGeometry width="50" height="50" relative="1" as="geometry">
            <mxPoint x="500" y="562.5" as="sourcePoint" />
            <mxPoint x="560" y="562.5" as="targetPoint" />
          </mxGeometry>
        </mxCell>
        <mxCell id="ffW3NOgqOSrnDVPmoZo_-106" value="&lt;span style=&quot;font-size: 13px&quot;&gt;第3+轮 派单队列&lt;/span&gt;" style="text;html=1;align=center;verticalAlign=middle;resizable=0;points=[];autosize=1;strokeColor=none;fillColor=none;" vertex="1" parent="1">
          <mxGeometry x="249" y="519" width="107" height="18" as="geometry" />
        </mxCell>
        <mxCell id="ffW3NOgqOSrnDVPmoZo_-116" style="edgeStyle=none;rounded=0;orthogonalLoop=1;jettySize=auto;html=1;entryX=0;entryY=0.25;entryDx=0;entryDy=0;fontSize=12;" edge="1" parent="1" source="ffW3NOgqOSrnDVPmoZo_-110" target="ffW3NOgqOSrnDVPmoZo_-43">
          <mxGeometry relative="1" as="geometry" />
        </mxCell>
        <mxCell id="ffW3NOgqOSrnDVPmoZo_-110" value="1轮" style="ellipse;whiteSpace=wrap;html=1;aspect=fixed;fillColor=#66FF66;strokeColor=#82b366;" vertex="1" parent="1">
          <mxGeometry x="564" y="364" width="40" height="40" as="geometry" />
        </mxCell>
        <mxCell id="ffW3NOgqOSrnDVPmoZo_-118" style="edgeStyle=none;rounded=0;orthogonalLoop=1;jettySize=auto;html=1;entryX=0;entryY=0.75;entryDx=0;entryDy=0;fontSize=12;" edge="1" parent="1" source="ffW3NOgqOSrnDVPmoZo_-111" target="ffW3NOgqOSrnDVPmoZo_-43">
          <mxGeometry relative="1" as="geometry" />
        </mxCell>
        <mxCell id="ffW3NOgqOSrnDVPmoZo_-111" value="5轮" style="ellipse;whiteSpace=wrap;html=1;aspect=fixed;fillColor=#FFB366;strokeColor=#d79b00;" vertex="1" parent="1">
          <mxGeometry x="564" y="543" width="40" height="40" as="geometry" />
        </mxCell>
        <mxCell id="ffW3NOgqOSrnDVPmoZo_-113" value="快" style="text;html=1;align=center;verticalAlign=middle;resizable=0;points=[];autosize=1;strokeColor=none;fillColor=none;fontSize=12;" vertex="1" parent="1">
          <mxGeometry x="513" y="360" width="22" height="18" as="geometry" />
        </mxCell>
        <mxCell id="ffW3NOgqOSrnDVPmoZo_-114" value="中" style="text;html=1;align=center;verticalAlign=middle;resizable=0;points=[];autosize=1;strokeColor=none;fillColor=none;fontSize=12;" vertex="1" parent="1">
          <mxGeometry x="513" y="450" width="22" height="18" as="geometry" />
        </mxCell>
        <mxCell id="ffW3NOgqOSrnDVPmoZo_-115" value="慢" style="text;html=1;align=center;verticalAlign=middle;resizable=0;points=[];autosize=1;strokeColor=none;fillColor=none;fontSize=12;" vertex="1" parent="1">
          <mxGeometry x="513" y="540" width="22" height="18" as="geometry" />
        </mxCell>
      </root>
    </mxGraphModel>
  </diagram>
</mxfile>
